<?xml version="1.0" standalone="no"?>
<!DOCTYPE svg PUBLIC "-//W3C//DTD SVG 20010904//EN"
 "http://www.w3.org/TR/2001/REC-SVG-20010904/DTD/svg10.dtd">
<svg version="1.0" xmlns="http://www.w3.org/2000/svg"
 width="813.000000pt" height="813.000000pt" viewBox="0 0 813.000000 813.000000"
 preserveAspectRatio="xMidYMid meet">
<metadata>
Created by potrace 1.11, written by Peter Selinger 2001-2013
</metadata>
<g transform="translate(0.000000,813.000000) scale(0.100000,-0.100000)"
fill="#000000" stroke="none">
<path d="M4080 7194 c-157 -6 -292 -12 -302 -13 -12 -1 -29 -40 -67 -153 -28
-83 -49 -153 -48 -155 4 -4 1260 227 1266 232 2 3 1 5 -3 5 -3 0 -87 23 -186
50 -206 57 -175 56 -660 34z"/>
<path d="M3493 7171 c-111 -7 -96 2 -166 -92 l-28 -37 152 -81 c83 -44 155
-81 160 -81 7 0 99 271 99 292 0 8 -44 8 -217 -1z"/>
<path d="M3184 7115 c38 -25 72 -45 76 -45 5 0 24 33 48 83 2 4 -41 7 -95 7
l-98 0 69 -45z"/>
<path d="M2675 7140 c-82 -4 -191 -8 -241 -9 l-91 -1 -186 -147 c-103 -81
-185 -148 -183 -150 6 -7 1191 -480 1194 -478 2 2 -67 176 -153 387 -87 210
-160 389 -162 396 -3 6 -10 11 -17 10 -6 -1 -78 -5 -161 -8z"/>
<path d="M2900 7144 c0 -12 294 -724 297 -720 4 4 43 513 43 567 0 35 -3 39
-97 98 -96 60 -98 61 -170 61 -40 0 -73 -3 -73 -6z"/>
<path d="M4378 6957 c-362 -67 -654 -124 -650 -128 4 -3 218 -83 476 -178 380
-139 472 -169 482 -159 7 7 94 138 193 291 160 244 190 300 163 296 -4 0 -303
-55 -664 -122z"/>
<path d="M4929 6779 c-101 -155 -187 -287 -191 -293 -7 -12 433 -10 569 2 l71
7 -124 275 c-68 151 -128 278 -133 283 -4 4 -91 -119 -192 -274z"/>
<path d="M5229 6934 c27 -60 77 -173 112 -251 35 -78 65 -140 66 -139 9 9 91
402 85 407 -4 3 -69 22 -145 43 -75 20 -144 39 -152 42 -10 4 2 -32 34 -102z"/>
<path d="M3286 6966 c-3 -17 -12 -141 -21 -276 -9 -135 -18 -258 -20 -273 -3
-15 -1 -25 4 -22 5 3 62 74 127 158 65 83 140 180 167 214 43 56 47 64 30 70
-10 3 -21 11 -24 16 -3 5 -63 39 -132 77 l-127 67 -4 -31z"/>
<path d="M5525 6863 c-9 -43 -30 -136 -45 -208 -16 -71 -28 -130 -27 -131 1
-1 90 63 197 143 107 80 204 151 214 159 11 7 18 16 15 18 -2 3 -72 23 -154
46 -83 22 -157 43 -166 46 -14 4 -20 -10 -34 -73z"/>
<path d="M5697 6646 l-248 -183 413 -391 c227 -214 414 -389 416 -387 6 6 -88
1069 -95 1075 -5 4 -53 19 -108 34 -55 15 -107 29 -116 31 -9 3 -114 -69 -262
-179z"/>
<path d="M1916 6791 c-6 -9 1008 -846 1024 -846 9 0 229 328 233 347 2 7
-1224 508 -1245 508 -4 0 -9 -4 -12 -9z"/>
<path d="M3442 6566 c-100 -130 -182 -239 -182 -244 0 -9 789 -356 795 -350 2
2 -86 175 -196 383 -111 209 -209 395 -218 413 l-17 33 -182 -235z"/>
<path d="M3680 6794 c0 -3 100 -194 221 -424 l222 -418 256 239 c141 132 257
243 259 247 1 4 -199 81 -445 171 -247 91 -463 171 -480 178 -18 7 -33 11 -33
7z"/>
<path d="M1817 6717 l-38 -33 138 -887 c76 -488 141 -889 144 -890 4 -1 196
220 428 492 410 480 422 495 399 507 -13 7 -21 16 -18 21 6 11 -980 822 -1000
822 -8 0 -32 -14 -53 -32z"/>
<path d="M6240 6721 c0 -30 76 -945 85 -1026 l6 -51 422 37 c232 21 434 39
449 41 l26 3 -41 122 -42 122 -429 383 c-236 211 -439 386 -452 390 -21 5 -24
3 -24 -21z"/>
<path d="M1645 6580 l-89 -71 -413 -867 c-386 -810 -413 -870 -407 -907 3 -22
7 -41 8 -41 3 -4 1248 165 1252 169 3 3 -3 18 -13 34 -16 26 -16 27 0 14 10
-8 20 -12 23 -9 5 6 -250 1669 -264 1721 l-7 27 -90 -70z"/>
<path d="M1306 6312 l-159 -127 -228 -588 c-126 -323 -229 -598 -229 -610 1
-12 6 -49 13 -81 l12 -59 378 793 c208 436 376 794 375 795 -2 2 -75 -54 -162
-123z"/>
<path d="M4878 6433 c-87 -2 -158 -7 -158 -12 0 -11 330 -1274 334 -1278 3 -3
87 325 255 990 l77 307 -175 -2 c-97 -1 -247 -4 -333 -5z"/>
<path d="M4412 6163 l-263 -246 28 -28 c120 -116 827 -769 830 -766 2 3 -315
1237 -330 1279 -1 4 -120 -104 -265 -239z"/>
<path d="M5411 6364 c-103 -398 -320 -1278 -316 -1282 5 -5 964 285 985 298 7
4 -109 192 -310 501 -177 272 -328 500 -335 508 -11 12 -15 8 -24 -25z"/>
<path d="M5602 6219 c164 -253 493 -758 510 -782 l20 -28 40 58 c22 32 56 79
74 104 l34 46 -342 324 c-188 178 -353 333 -366 343 -17 13 -7 -7 30 -65z"/>
<path d="M3229 6248 c0 -13 -3 -17 -6 -10 -2 6 -8 12 -13 12 -8 0 -210 -302
-210 -314 0 -8 620 -8 833 1 l167 6 -375 164 c-207 89 -380 163 -385 163 -6 0
-10 -10 -11 -22z"/>
<path d="M3192 5880 l-142 -5 446 -223 c245 -123 448 -221 451 -218 6 6 132
428 133 444 0 9 -80 12 -372 10 -205 -1 -437 -5 -516 -8z"/>
<path d="M4061 5653 c-35 -119 -64 -223 -65 -231 -1 -10 139 -60 473 -168 261
-85 476 -152 478 -150 4 4 -802 759 -815 764 -4 1 -36 -96 -71 -215z"/>
<path d="M2980 5839 c0 -18 186 -1642 193 -1678 1 -10 679 1086 744 1203 11
21 -7 31 -463 259 -409 205 -474 234 -474 216z"/>
<path d="M2505 5350 c-231 -271 -420 -496 -420 -501 0 -9 1037 -720 1042 -715
6 5 -187 1669 -195 1689 -6 15 -91 -79 -427 -473z"/>
<path d="M6838 5645 c-201 -18 -374 -35 -384 -37 -9 -1 186 -61 435 -131 249
-71 455 -127 456 -125 2 2 -20 75 -49 163 -43 131 -56 160 -72 162 -10 0 -184
-14 -386 -32z"/>
<path d="M6344 5572 c3 -9 66 -237 141 -507 75 -269 137 -490 138 -491 1 -1
175 137 387 307 410 330 395 314 366 382 l-13 33 -444 127 c-244 70 -475 136
-512 146 -62 18 -68 18 -63 3z"/>
<path d="M6231 5474 c-35 -48 -65 -93 -68 -99 -3 -11 341 -628 368 -659 4 -5
-3 29 -15 75 -161 581 -210 755 -216 762 -4 5 -35 -31 -69 -79z"/>
<path d="M3600 4760 c-205 -336 -371 -612 -369 -614 2 -2 399 197 883 442 552
280 873 448 865 452 -8 4 -231 78 -495 164 -265 86 -488 158 -496 161 -11 4
-115 -157 -388 -605z"/>
<path d="M5618 5192 c-263 -81 -478 -149 -478 -152 0 -3 316 -108 703 -234
386 -126 706 -232 711 -234 11 -6 -5 23 -247 443 -101 176 -190 321 -198 322
-8 1 -229 -65 -491 -145z"/>
<path d="M7215 4989 c-110 -88 -204 -165 -210 -171 -5 -5 44 25 110 68 349
226 323 205 307 247 -6 14 -41 -10 -207 -144z"/>
<path d="M7055 4794 c-214 -139 -390 -258 -390 -264 0 -6 131 -105 290 -221
l290 -209 25 30 c20 22 48 110 127 394 l101 366 -25 77 c-13 43 -25 78 -26 79
-1 1 -177 -112 -392 -252z"/>
<path d="M4240 4603 c-426 -216 -831 -422 -899 -457 l-124 -62 843 -283 c463
-155 844 -280 848 -277 4 4 118 1382 122 1469 0 4 -3 6 -7 6 -5 -1 -357 -179
-783 -396z"/>
<path d="M5104 4984 c4 -10 133 -312 288 -671 l281 -653 71 67 c181 170 816
787 816 792 0 5 -1399 468 -1448 480 -11 2 -13 -2 -8 -15z"/>
<path d="M5100 4844 c1 -16 31 -315 69 -664 l67 -635 25 3 c28 3 362 83 368
88 3 3 -516 1223 -525 1233 -2 2 -4 -9 -4 -25z"/>
<path d="M1360 4730 c-316 -42 -582 -79 -591 -81 -14 -4 -14 -13 3 -103 17
-90 27 -114 110 -265 l92 -166 245 -203 245 -203 40 6 c98 15 80 -12 198 298
60 155 152 398 207 540 l99 257 -37 -1 c-20 -1 -295 -36 -611 -79z"/>
<path d="M1846 4269 c-109 -286 -196 -523 -192 -526 4 -5 586 75 677 93 22 4
36 -8 113 -101 48 -58 93 -105 99 -105 6 0 58 14 115 32 74 23 101 35 98 45
-7 18 -685 1055 -699 1070 -9 9 -59 -111 -211 -508z"/>
<path d="M2204 4638 c455 -697 595 -909 602 -906 5 2 77 78 161 169 127 140
150 169 140 182 -11 15 -962 667 -972 667 -2 0 29 -51 69 -112z"/>
<path d="M5006 4135 c-27 -339 -46 -618 -44 -620 5 -5 220 15 226 21 6 4 -121
1198 -128 1206 -3 4 -28 -269 -54 -607z"/>
<path d="M6640 4458 c1 -55 58 -619 63 -624 3 -3 78 -3 166 1 l160 7 90 108
c50 60 91 112 91 117 -1 4 -98 78 -218 163 -387 277 -352 255 -352 228z"/>
<path d="M6285 4187 c-508 -489 -567 -548 -563 -553 7 -6 429 -97 433 -92 6 6
385 881 382 884 -1 1 -114 -106 -252 -239z"/>
<path d="M6577 4399 c-8 -19 -92 -211 -186 -428 -94 -217 -170 -396 -168 -397
5 -6 412 235 421 249 8 12 -40 595 -49 606 -2 2 -10 -12 -18 -30z"/>
<path d="M826 4265 c7 -30 30 -63 38 -54 3 3 -6 23 -20 44 -23 38 -24 39 -18
10z"/>
<path d="M3213 4008 c8 -18 82 -200 166 -404 l152 -371 133 27 c73 14 139 30
147 35 8 5 96 71 197 148 161 122 185 137 200 125 9 -7 55 -47 102 -90 l85
-76 170 34 c94 19 195 39 225 45 l55 12 -815 273 c-448 150 -818 273 -823 274
-4 0 -1 -15 6 -32z"/>
<path d="M3121 4003 c-41 -38 -281 -305 -281 -312 0 -5 464 -317 601 -404 l29
-19 -14 34 c-8 18 -78 188 -156 378 -78 190 -143 346 -145 348 -2 2 -17 -9
-34 -25z"/>
<path d="M6712 3773 c30 -110 63 -213 69 -213 4 0 44 44 90 98 45 53 89 105
97 115 14 16 8 17 -123 17 -126 0 -137 -1 -133 -17z"/>
<path d="M6430 3639 c-124 -72 -226 -132 -227 -133 -3 -3 248 -321 256 -324 7
-2 246 275 271 314 11 18 7 39 -25 147 -21 70 -41 127 -44 127 -3 0 -107 -59
-231 -131z"/>
<path d="M2688 3604 c-49 -24 -88 -47 -88 -50 0 -3 37 -50 83 -105 l82 -100 6
148 c3 81 5 149 5 149 -1 1 -40 -18 -88 -42z"/>
<path d="M2817 3468 l-6 -172 67 -83 67 -83 45 5 c25 2 95 7 156 10 85 5 134
13 215 38 l104 33 -317 212 c-175 117 -319 212 -321 212 -2 0 -7 -77 -10 -172z"/>
<path d="M5442 3545 c-95 -24 -175 -45 -177 -47 -2 -2 73 -91 166 -198 123
-140 177 -196 195 -198 28 -4 235 16 242 22 2 3 -45 109 -104 235 -91 194
-112 231 -129 230 -11 -1 -98 -20 -193 -44z"/>
<path d="M5710 3583 c0 -9 202 -438 211 -447 8 -9 247 9 258 19 8 9 -29 310
-39 313 -6 2 -10 10 -10 18 0 8 -2 14 -5 14 -5 0 -360 75 -397 84 -10 2 -18 2
-18 -1z"/>
<path d="M5064 3477 l-111 -9 -11 -272 -11 -271 67 -62 c37 -34 68 -61 69 -60
1 1 27 144 57 317 31 173 59 327 62 343 3 15 2 26 -3 25 -4 0 -58 -6 -119 -11z"/>
<path d="M4665 3412 l-229 -45 45 -41 c25 -23 127 -114 226 -203 l181 -162 6
152 c4 84 9 196 12 250 4 53 2 96 -2 96 -5 -1 -112 -22 -239 -47z"/>
<path d="M5226 3429 c-3 -8 -31 -160 -62 -337 l-57 -324 24 -23 c49 -49 714
-643 717 -640 1 1 -34 143 -80 316 l-82 314 -219 345 c-121 190 -223 349 -228
354 -5 6 -10 4 -13 -5z"/>
<path d="M6200 3420 c0 -19 19 -185 26 -229 l5 -33 82 7 c45 4 84 8 86 10 2 2
-38 57 -89 122 -114 145 -110 140 -110 123z"/>
<path d="M5492 3123 c44 -71 94 -150 111 -176 16 -26 31 -46 34 -43 2 2 -3 32
-13 67 -15 54 -31 77 -112 171 -52 59 -96 108 -98 108 -2 0 33 -57 78 -127z"/>
<path d="M3617 3208 c-68 -12 -72 -32 -6 -35 34 -2 50 3 74 22 34 29 30 29
-68 13z"/>
</g>
</svg>
