<svg xmlns="http://www.w3.org/2000/svg" xmlns:xlink="http://www.w3.org/1999/xlink" viewBox="0 0 194.95 191.05"><defs><style>.cls-1,.cls-13,.cls-3,.cls-6{fill:#fff;}.cls-1,.cls-13,.cls-14{stroke:#000;stroke-miterlimit:10;}.cls-2{isolation:isolate;}.cls-3{font-size:35px;font-family:Roboto-Bold, Roboto;letter-spacing:0.03em;}.cls-4{font-weight:700;}.cls-5{font-family:Roboto-Thin, Roboto;letter-spacing:0.07em;}.cls-7{clip-path:url(#clip-path);}.cls-8{fill:url(#linear-gradient);}.cls-9{fill:url(#linear-gradient-2);}.cls-10{fill:url(#linear-gradient-3);}.cls-11{fill:url(#linear-gradient-4);}.cls-12{fill:url(#linear-gradient-5);}.cls-13{mix-blend-mode:color;}.cls-14{fill:none;}</style><clipPath id="clip-path"><polygon class="cls-1" points="15.82 71.21 27.03 42.4 55.84 19.66 109.08 17.58 151.03 29.08 171.99 47.85 180.41 73.82 175.46 91.69 155.33 115.44 134.77 117.46 141.35 142.51 100.53 105.89 87.69 115.67 70.36 116.57 56.29 99.65 34.85 102.74 19.39 89.91 15.82 71.21"/></clipPath><linearGradient id="linear-gradient" x1="-524.59" y1="160.92" x2="-524.35" y2="160.69" gradientTransform="matrix(169.64, -33.93, -10.39, -51.97, 90804.23, -9256.14)" gradientUnits="userSpaceOnUse"><stop offset="0" stop-color="#4e0802"/><stop offset="1" stop-color="#3a3c24"/></linearGradient><linearGradient id="linear-gradient-2" x1="-525.67" y1="159.9" x2="-525.44" y2="159.67" gradientTransform="matrix(123.55, -24.71, -12.55, -62.76, 67071, -2782.6)" gradientUnits="userSpaceOnUse"><stop offset="0" stop-color="#540b02"/><stop offset="1" stop-color="#520b00"/></linearGradient><linearGradient id="linear-gradient-3" x1="-532.26" y1="160.58" x2="-532.02" y2="160.34" gradientTransform="matrix(64.72, -12.94, -11.77, -58.83, 36469.51, 2734.45)" gradientUnits="userSpaceOnUse"><stop offset="0" stop-color="#500b02"/><stop offset="1" stop-color="#4c0800"/></linearGradient><linearGradient id="linear-gradient-4" x1="-542.73" y1="160.52" x2="-542.49" y2="160.28" gradientTransform="matrix(37.26, -7.45, -11.77, -58.83, 22252.51, 5578.17)" gradientUnits="userSpaceOnUse"><stop offset="0" stop-color="#4a0802"/><stop offset="1" stop-color="#480802"/></linearGradient><linearGradient id="linear-gradient-5" x1="-525.72" y1="158.14" x2="-525.49" y2="157.91" gradientTransform="matrix(123.55, -24.71, -22.55, -112.77, 68627.84, 5000.22)" gradientUnits="userSpaceOnUse"><stop offset="0" stop-color="#560d00"/><stop offset="1" stop-color="#540b02"/></linearGradient></defs><title>logo_light_wname</title><g class="cls-2"><g id="Ebene_2" data-name="Ebene 2"><g id="Layer_1" data-name="Layer 1"><text class="cls-3" transform="translate(14.9 181.57)"><tspan class="cls-4">Brain</tspan><tspan class="cls-5" x="86.9" y="0">Map</tspan></text><polygon class="cls-6" points="15.82 71.21 27.03 42.4 55.84 19.66 109.08 17.58 151.03 29.08 171.99 47.85 180.41 73.82 175.46 91.69 155.33 115.44 134.77 117.46 141.35 142.51 100.53 105.89 87.69 115.67 70.36 116.57 56.29 99.65 34.85 102.74 19.39 89.91 15.82 71.21"/><g class="cls-7"><polygon class="cls-1" points="15.51 79.43 48.95 75 41.23 25.4 15.51 79.43"/><polygon class="cls-1" points="41.23 25.4 48.95 75 70.66 49.54 41.23 25.4"/><polygon class="cls-1" points="70.66 49.54 48.95 75 75.74 93.29 70.66 49.54"/><polygon class="cls-1" points="48.95 75 67.1 102.76 75.74 93.29 48.95 75"/><polygon class="cls-1" points="151.31 56.34 148.44 22.28 129.88 36.05 151.31 56.34"/><polygon class="cls-1" points="112.42 36.41 86.96 27.03 98.7 49.23 112.42 36.41"/><path class="cls-8" d="M145.46,182.31l8.84-1.73s-.56-1.81-1.35-4.83l-12.09,2.51Z"/><path class="cls-1" d="M38.94,21.53a27.67,27.67,0,0,0-3.3,2.89l5.59,1Z"/><path class="cls-1" d="M151.31,56.34,178,54a10.15,10.15,0,0,0-2.33-1.77,14.06,14.06,0,0,0-.28-3.23,14.54,14.54,0,0,0-.42-1.57l-26.5-25.18Z"/><path class="cls-1" d="M67.1,102.76l-15.58,8.07a29.88,29.88,0,0,0,4.93,8.29l10.24.44Z"/><path class="cls-9" d="M140.76,178.25s0,.06,0,.09l.1-.08Z"/><polygon class="cls-1" points="77.08 39.81 41.23 25.4 70.66 49.54 77.08 39.81"/><polygon class="cls-1" points="77.08 39.81 70.66 49.54 98.7 49.23 77.08 39.81"/><polygon class="cls-1" points="86.96 27.03 78.33 22.37 77.08 39.81 86.96 27.03"/><polygon class="cls-1" points="98.7 49.23 86.96 27.03 77.08 39.81 98.7 49.23"/><path class="cls-1" d="M66.69,119.56l7.2,9.95q.89.19,1.79.32l3.62-7.32Z"/><path class="cls-1" d="M180.64,64.72l.21-2.59-.11-.07A9.68,9.68,0,0,0,178,54l-26.65,2.32Z"/><path class="cls-1" d="M182.95,66.62l-.35-3.17a10.14,10.14,0,0,0-1.75-1.32l-.21,2.59Z"/><path class="cls-1" d="M15.51,79.43.66,83.32a27.64,27.64,0,0,0,.4,8.52c0,.21.1.42.15.63l13.61,14.17Z"/><path class="cls-10" d="M140.77,178.34c.14,1.56.26,3.16.35,4.82l2.26-.44-2.51-4.46Z"/><polygon class="cls-11" points="143.38 182.72 145.46 182.31 140.87 178.26 143.38 182.72"/><path class="cls-1" d="M184.39,65.67a9.87,9.87,0,0,0-1.8-2.23l.35,3.17Z"/><polygon class="cls-1" points="67.01 15.17 41.23 25.4 77.08 39.81 67.01 15.17"/><polygon class="cls-1" points="78.33 22.37 67.01 15.17 77.08 39.81 78.33 22.37"/><polygon class="cls-1" points="66.69 119.56 84.33 114.22 67.1 102.76 66.69 119.56"/><polygon class="cls-1" points="79.3 122.51 84.33 114.22 66.69 119.56 79.3 122.51"/><polygon class="cls-1" points="67.1 102.76 84.33 114.22 75.74 93.29 67.1 102.76"/><polygon class="cls-1" points="84.33 114.22 118.28 107.56 75.74 93.29 84.33 114.22"/><path class="cls-1" d="M41.23,25.4,20.53,36.63a28,28,0,0,0-5.84,12.58A28,28,0,0,0,4.42,72.09,27.91,27.91,0,0,0,3,74.9l12.54,4.53Z"/><path class="cls-1" d="M3,74.9a27.71,27.71,0,0,0-2.3,8.42l14.84-3.89Z"/><polygon class="cls-1" points="125.12 106.93 151.12 136.68 135.88 104.34 125.12 106.93"/><polygon class="cls-1" points="151.12 136.68 147.94 106.93 135.88 104.34 151.12 136.68"/><path class="cls-1" d="M78.33,22.37,88.25,5.72A17.24,17.24,0,0,0,81,5.6l-.6.14L67,15.17Z"/><path class="cls-1" d="M75.68,129.83a31.36,31.36,0,0,0,10.63-.26l.65-.14-7.67-6.92Z"/><path class="cls-1" d="M79.3,122.51,87,129.43a31.1,31.1,0,0,0,7.13-2.48l-9.77-12.73Z"/><path class="cls-1" d="M84.33,114.22l9.77,12.73a30.64,30.64,0,0,0,11.16-9.33,19.22,19.22,0,0,0,12.22,10.31l.8-20.37Z"/><path class="cls-12" d="M140.75,178.15v.1h.11Z"/><path class="cls-1" d="M118.28,107.56l-.8,20.37a19.49,19.49,0,0,0,2.21.49,18.26,18.26,0,0,0,1.2,2.27l4.23-23.77Z"/><polygon class="cls-1" points="147.01 62.36 151.31 56.34 129.88 36.05 147.01 62.36"/><path class="cls-1" d="M151.12,136.68l12.41,0a19.23,19.23,0,0,0,5.15-3.33l-20.75-26.46Z"/><path class="cls-1" d="M147.94,106.93l20.75,26.46q.65-.59,1.25-1.23l-9.75-32.34Z"/><path class="cls-1" d="M160.18,99.82l9.75,32.34a18.72,18.72,0,0,0,5-13.06l.62-.34c.36-.21.71-.43,1-.66l5.33-18.78Z"/><path class="cls-1" d="M176.6,118.09a18.85,18.85,0,0,0,8-11.83l-2.68-6.95Z"/><polygon class="cls-1" points="70.66 49.54 75.74 93.29 95 61.73 70.66 49.54"/><polygon class="cls-1" points="98.7 49.23 70.66 49.54 95 61.73 98.7 49.23"/><polygon class="cls-1" points="75.74 93.29 121.24 70.24 95 61.73 75.74 93.29"/><polygon class="cls-1" points="75.74 93.29 118.28 107.56 121.24 70.24 75.74 93.29"/><polygon class="cls-1" points="95 61.73 121.24 70.24 98.7 49.23 95 61.73"/><polygon class="cls-1" points="98.7 49.23 121.24 70.24 112.42 36.41 98.7 49.23"/><polygon class="cls-1" points="118.28 107.56 125.12 106.93 121.24 70.24 118.28 107.56"/><polygon class="cls-1" points="121.24 70.24 125.12 106.93 135.88 104.34 121.24 70.24"/><polygon class="cls-1" points="112.42 36.41 121.24 70.24 129.88 36.05 112.42 36.41"/><polygon class="cls-1" points="121.24 70.24 147.01 62.36 129.88 36.05 121.24 70.24"/><path class="cls-1" d="M47.31,17.28a27.94,27.94,0,0,0-8.37,4.26l2.3,3.87Z"/><path class="cls-1" d="M67,15.17l.14-5.63q-1,.12-2,.32a28,28,0,0,0-13.05,6.37c-.58.08-1.16.17-1.75.28a28.65,28.65,0,0,0-3,.77L41.23,25.4Z"/><path class="cls-1" d="M80.41,5.73a17,17,0,0,0-7.31,3.7,28.37,28.37,0,0,0-5.94.1L67,15.17Z"/><path class="cls-1" d="M14.81,106.65l-1.33,3.26a29.15,29.15,0,0,0,14.6,4.62l6.13-1.08Z"/><path class="cls-1" d="M28.08,114.53a29.24,29.24,0,0,0,5.93-.36l.2-.72Z"/><polygon class="cls-1" points="14.81 106.65 34.21 113.45 15.51 79.43 14.81 106.65"/><polygon class="cls-1" points="34.21 113.45 48.95 75 15.51 79.43 34.21 113.45"/><path class="cls-1" d="M34,114.17l.57-.1-.37-.62Z"/><path class="cls-1" d="M50.61,108.12q.4,1.39.92,2.71l15.58-8.07Z"/><path class="cls-1" d="M34.59,114.07,35,114a29,29,0,0,0,10.22-4.12l-11,3.56Z"/><path class="cls-1" d="M48.95,75,34.21,113.45l11-3.56a28.77,28.77,0,0,0,4.87-4c.16.75.35,1.49.55,2.22l16.5-5.36Z"/><path class="cls-1" d="M87,27,94.3,4.78A17.13,17.13,0,0,0,90.48,6.4l-.32-.11L78.33,22.37Z"/><path class="cls-1" d="M90.16,6.29a17.12,17.12,0,0,0-1.91-.57L78.33,22.37Z"/><path class="cls-1" d="M156.7,24.87a11.51,11.51,0,0,0-7-5.53l-1.3,2.94Z"/><path class="cls-1" d="M174.94,47.46A14.5,14.5,0,0,0,167,38.74c0-.43-.11-.86-.2-1.29a14.48,14.48,0,0,0-9.31-10.68,11.1,11.1,0,0,0-.82-1.89l-8.26-2.59Z"/><path class="cls-1" d="M4.94,101.37a28.52,28.52,0,0,0,8.55,8.53l1.33-3.26Z"/><path class="cls-1" d="M1.2,92.48a27.83,27.83,0,0,0,3.73,8.9l9.87,5.28Z"/><polygon class="cls-1" points="148.44 22.28 133.25 20.78 129.88 36.05 148.44 22.28"/><path class="cls-1" d="M142.45,16.84a11.55,11.55,0,0,0-11.09-6.05l-.19-.2,2.08,10.19Z"/><path class="cls-1" d="M148.44,22.28l1.3-2.94a11.67,11.67,0,0,0-1.14-.27l-15.35,1.71Z"/><path class="cls-1" d="M148.6,19.07a11.72,11.72,0,0,0-4.32,0c-.29.06-.58.14-.87.21a11.19,11.19,0,0,0-1-2.48l-9.2,3.94Z"/><path class="cls-1" d="M122.86,20.47,106.06,5.57h0a17.22,17.22,0,0,0-10.3-1.15q-.74.15-1.45.35L87,27Z"/><polygon class="cls-1" points="122.86 20.47 86.96 27.03 112.42 36.41 122.86 20.47"/><path class="cls-1" d="M122.8,6.45a11.64,11.64,0,0,0-6.49-.58l-.19,0a11.66,11.66,0,0,0-10.06-.35l16.8,14.89Z"/><polygon class="cls-1" points="129.88 36.05 122.86 20.47 112.42 36.41 129.88 36.05"/><polygon class="cls-1" points="133.25 20.78 122.86 20.47 129.88 36.05 133.25 20.78"/><path class="cls-1" d="M133.25,20.78l-2.08-10.19a11.6,11.6,0,0,0-7.27-3.65,11.34,11.34,0,0,0-1.1-.49l.05,14Z"/><path class="cls-1" d="M120.89,130.69a19.16,19.16,0,0,0,6.92,6.69,64.44,64.44,0,0,1,6.24,11.75l14.17-5.48c0-.15,0-.29,0-.44l-23.1-36.29Z"/><path class="cls-1" d="M140.75,178.15l.12.11,7.36-33.72c0-.3,0-.59,0-.89l-14.17,5.48A99.47,99.47,0,0,1,140.75,178.15Z"/><path class="cls-1" d="M125.12,106.93l23.1,36.29c0-2.11.08-4.19.26-6.22a19.74,19.74,0,0,0,2.23.72l.4-1Z"/><path class="cls-1" d="M153,175.75c-1.73-6.65-4.52-19.18-4.72-31.21l-7.36,33.72Z"/><path class="cls-1" d="M150.72,137.72a19.5,19.5,0,0,0,8.7.28,19.74,19.74,0,0,0,4.11-1.28l-12.41,0Z"/><path class="cls-1" d="M56.45,119.12a30.65,30.65,0,0,0,4.43,4.31l5.8-3.87Z"/><path class="cls-1" d="M60.88,123.43a31.17,31.17,0,0,0,13,6.08l-7.2-9.95Z"/><polygon class="cls-1" points="135.88 104.34 158.56 82.47 121.24 70.24 135.88 104.34"/><polygon class="cls-1" points="121.24 70.24 158.56 82.47 147.01 62.36 121.24 70.24"/><polygon class="cls-1" points="147.94 106.93 158.56 82.47 135.88 104.34 147.94 106.93"/><polygon class="cls-1" points="160.18 99.82 158.56 82.47 147.94 106.93 160.18 99.82"/><polygon class="cls-1" points="147.01 62.36 158.56 82.47 151.31 56.34 147.01 62.36"/><polygon class="cls-1" points="151.31 56.34 158.56 82.47 180.64 64.72 151.31 56.34"/><polygon class="cls-1" points="181.93 99.32 158.56 82.47 160.18 99.82 181.93 99.32"/><path class="cls-1" d="M158.56,82.47l23.37,16.85.21-6.72a19.08,19.08,0,0,0-3-3.73,10.07,10.07,0,0,0,3.21-1.58l.64-20.67Z"/><polygon class="cls-1" points="158.56 82.47 182.95 66.62 180.64 64.72 158.56 82.47"/><path class="cls-1" d="M182.31,87.28a9.71,9.71,0,0,0,2.64-12.9,9.65,9.65,0,0,0-.44-8.49l-1.56.72Z"/><path class="cls-1" d="M183.78,95.87a18.76,18.76,0,0,0-1.49-3.05l-.15-.22-.21,6.72Z"/><path class="cls-1" d="M184.61,106.26a18.51,18.51,0,0,0-.83-10.39l-1.84,3.45Z"/><path class="cls-1" d="M182.95,66.62l1.56-.72-.11-.22Z"/><path class="cls-1" d="M35.64,24.42a27.79,27.79,0,0,0-2.84,3.41l-.71.29,9.14-2.72Z"/><path class="cls-1" d="M32.09,28.12a28.62,28.62,0,0,0-11.56,8.51L41.23,25.4Z"/><path class="cls-13" d="M193.59,67.62a10.26,10.26,0,0,0-5-6.84,10.07,10.07,0,0,0-.13-3.24,10.27,10.27,0,0,0-5.18-7,14.62,14.62,0,0,0-.29-3.36,15,15,0,0,0-8.67-10.7c0-.44-.11-.89-.21-1.34a15.06,15.06,0,0,0-9.68-11.11,12,12,0,0,0-13.77-8c-.31.06-.6.14-.9.22a12,12,0,0,0-12.54-8.88,12.08,12.08,0,0,0-7.76-4,12.13,12.13,0,0,0-7.89-1.11l-.2,0A12.14,12.14,0,0,0,110.93,2a18,18,0,0,0-16.19.86A17.93,17.93,0,0,0,84.88,2a17.74,17.74,0,0,0-8.22,4,29.61,29.61,0,0,0-8.29.44,29.12,29.12,0,0,0-13.58,6.62c-.61.08-1.21.17-1.82.29A29,29,0,0,0,34.75,25.18,29.56,29.56,0,0,0,15.91,47.41,29.16,29.16,0,0,0,5.23,71.21a28.77,28.77,0,0,0-3.5,20.55C5,107.67,20.76,118,37,114.8a30,30,0,0,0,15.7-8.43c3.49,17,20.37,28,37.72,24.62a32,32,0,0,0,19.71-12.44,20.06,20.06,0,0,0,15,11.24,19.8,19.8,0,0,0,8.45,9.32c5.74,8.44,12.53,23.35,13.84,47.61L161.12,184s-7.88-25.33-6-45.32a20.32,20.32,0,0,0,11.38,1,19.77,19.77,0,0,0,16.13-19.66l.65-.35a19.47,19.47,0,0,0,7-27,19.84,19.84,0,0,0-3.32-4.11A10.16,10.16,0,0,0,193,73.59,10,10,0,0,0,193.59,67.62Z"/></g><polygon class="cls-14" points="15.82 71.21 27.03 42.4 55.84 19.66 109.08 17.58 151.03 29.08 171.99 47.85 180.41 73.82 175.46 91.69 155.33 115.44 134.77 117.46 141.35 142.51 100.53 105.89 87.69 115.67 70.36 116.57 56.29 99.65 34.85 102.74 19.39 89.91 15.82 71.21"/></g></g></g></svg>