<svg xmlns="http://www.w3.org/2000/svg" xmlns:xlink="http://www.w3.org/1999/xlink" viewBox="0 0 194.29 190.74"><defs><style>.cls-1,.cls-12,.cls-4{stroke:#fff;stroke-miterlimit:10;}.cls-2{isolation:isolate;}.cls-3{clip-path:url(#clip-path);}.cls-4{mix-blend-mode:color;}.cls-5{fill:url(#linear-gradient);}.cls-6{fill:url(#linear-gradient-2);}.cls-7{fill:url(#linear-gradient-3);}.cls-8{fill:url(#linear-gradient-4);}.cls-9{fill:url(#linear-gradient-5);}.cls-10{fill:url(#linear-gradient-6);}.cls-11{fill:url(#linear-gradient-7);}.cls-12{fill:none;}.cls-13{font-size:35px;font-family:Roboto-Bold, Roboto;letter-spacing:0.03em;}.cls-14{font-weight:700;}.cls-15{font-family:Roboto-Thin, Roboto;letter-spacing:0.07em;}</style><clipPath id="clip-path"><polygon class="cls-1" points="15.77 70.97 26.94 42.26 55.66 19.59 108.71 17.52 150.52 28.99 171.41 47.69 179.81 73.57 174.87 91.39 154.81 115.05 134.32 117.06 140.88 142.03 100.19 105.54 87.39 115.28 70.12 116.18 56.1 99.32 34.74 102.39 19.33 89.61 15.77 70.97"/></clipPath><linearGradient id="linear-gradient" x1="478.64" y1="164.17" x2="478.9" y2="164" gradientTransform="matrix(169.64, -33.93, -10.39, -51.97, -79351.96, 24949.07)" gradientUnits="userSpaceOnUse"><stop offset="0" stop-color="#4e0802"/><stop offset="1" stop-color="#3a3c24"/></linearGradient><linearGradient id="linear-gradient-2" x1="475.39" y1="162.43" x2="475.68" y2="162.31" gradientTransform="matrix(123.55, -24.71, -12.55, -62.76, -56586.02, 22117.77)" gradientUnits="userSpaceOnUse"><stop offset="0" stop-color="#540b02"/><stop offset="1" stop-color="#520b00"/></linearGradient><linearGradient id="linear-gradient-3" x1="461.73" y1="163.31" x2="461.92" y2="163.27" gradientTransform="matrix(64.72, -12.94, -11.77, -58.83, -27825.27, 15764.82)" gradientUnits="userSpaceOnUse"><stop offset="0" stop-color="#500b02"/><stop offset="1" stop-color="#4c0800"/></linearGradient><linearGradient id="linear-gradient-4" x1="440.19" y1="163.31" x2="440.46" y2="163.27" gradientTransform="matrix(37.26, -7.45, -11.77, -58.83, -14340.04, 13068.25)" gradientUnits="userSpaceOnUse"><stop offset="0" stop-color="#4a0802"/><stop offset="1" stop-color="#480802"/></linearGradient><linearGradient id="linear-gradient-5" x1="475.37" y1="159.2" x2="475.61" y2="159.15" gradientTransform="matrix(123.55, -24.71, -22.55, -112.77, -55034, 29876.55)" gradientUnits="userSpaceOnUse"><stop offset="0" stop-color="#560d00"/><stop offset="1" stop-color="#540b02"/></linearGradient><linearGradient id="linear-gradient-6" x1="476.96" y1="158.64" x2="477.16" y2="158.6" gradientTransform="matrix(141.2, -28.24, -27.65, -138.26, -62838.01, 35563.84)" gradientUnits="userSpaceOnUse"><stop offset="0" stop-color="#d57b08"/><stop offset="1" stop-color="#e67713"/></linearGradient><linearGradient id="linear-gradient-7" x1="478.65" y1="158.62" x2="478.8" y2="158.59" gradientTransform="matrix(169.64, -33.93, -27.65, -138.26, -76675.56, 38331.51)" gradientUnits="userSpaceOnUse"><stop offset="0" stop-color="#d2800d"/><stop offset="1" stop-color="#e0a13a"/></linearGradient></defs><title>logo_black_wname</title><g class="cls-2"><g id="Ebene_2" data-name="Ebene 2"><g id="Layer_1" data-name="Layer 1"><polygon points="15.77 70.97 26.94 42.26 55.66 19.59 108.71 17.52 150.52 28.99 171.41 47.69 179.81 73.57 174.87 91.39 154.81 115.05 134.32 117.06 140.88 142.03 100.19 105.54 87.39 115.28 70.12 116.18 56.1 99.32 34.74 102.39 19.33 89.61 15.77 70.97"/><g class="cls-3"><path class="cls-4" d="M192.94,67.39a10.22,10.22,0,0,0-5-6.82,10,10,0,0,0-.13-3.23,10.24,10.24,0,0,0-5.16-6.93,14.57,14.57,0,0,0-.29-3.34,15,15,0,0,0-8.64-10.67c0-.44-.11-.89-.21-1.34A15,15,0,0,0,163.91,24a12,12,0,0,0-13.72-7.93c-.31.06-.6.14-.9.22a11.91,11.91,0,0,0-12.5-8.85,12,12,0,0,0-7.73-4,12.09,12.09,0,0,0-7.87-1.11l-.2,0A12.1,12.1,0,0,0,110.56,2a17.9,17.9,0,0,0-16.14.85A17.87,17.87,0,0,0,84.6,2a17.68,17.68,0,0,0-8.2,4,29.51,29.51,0,0,0-8.26.44,29,29,0,0,0-13.53,6.6c-.6.08-1.21.17-1.81.29A28.91,28.91,0,0,0,34.63,25.09,29.46,29.46,0,0,0,15.86,47.25,29.06,29.06,0,0,0,5.22,71,28.67,28.67,0,0,0,1.73,91.45c3.23,15.86,19,26.14,35.14,23A29.87,29.87,0,0,0,52.51,106C56,123,72.81,133.94,90.1,130.55a31.89,31.89,0,0,0,19.64-12.39,20,20,0,0,0,15,11.2,19.73,19.73,0,0,0,8.42,9.29c5.72,8.41,12.48,23.27,13.79,47.45l13.67-2.68s-7.85-25.24-6-45.17a20.25,20.25,0,0,0,11.34,1A19.71,19.71,0,0,0,182,119.69l.64-.35a19.4,19.4,0,0,0,7-26.89,19.78,19.78,0,0,0-3.31-4.1,10.13,10.13,0,0,0,6.06-15A10,10,0,0,0,192.94,67.39Z"/><rect class="cls-1" x="15.77" y="17.52" width="164.09" height="124.5"/><polygon class="cls-1" points="15.46 79.17 48.78 74.74 41.1 25.32 15.46 79.17"/><polygon class="cls-1" points="41.1 25.32 48.78 74.74 70.42 49.38 41.1 25.32"/><polygon class="cls-1" points="70.42 49.38 48.78 74.74 75.48 92.98 70.42 49.38"/><polygon class="cls-1" points="48.78 74.74 66.88 102.41 75.48 92.98 48.78 74.74"/><polygon class="cls-1" points="150.8 56.15 147.94 22.21 129.44 35.93 150.8 56.15"/><polygon class="cls-1" points="112.04 36.29 86.67 26.95 98.36 49.06 112.04 36.29"/><path class="cls-5" d="M145,181.69l8.81-1.73s-.56-1.8-1.34-4.81l-12,2.5Z"/><path class="cls-1" d="M38.81,21.46a27.58,27.58,0,0,0-3.29,2.88l5.58,1Z"/><path class="cls-1" d="M150.8,56.15l26.56-2.31A10.11,10.11,0,0,0,175,52.08a14,14,0,0,0-.28-3.22,14.49,14.49,0,0,0-.42-1.56L147.94,22.21Z"/><path class="cls-1" d="M66.88,102.41l-15.53,8a29.78,29.78,0,0,0,4.91,8.26l10.2.44Z"/><path class="cls-6" d="M140.29,177.65s0,.06,0,.09l.1-.08Z"/><polygon class="cls-1" points="76.82 39.67 41.1 25.32 70.42 49.38 76.82 39.67"/><polygon class="cls-1" points="76.82 39.67 70.42 49.38 98.36 49.06 76.82 39.67"/><polygon class="cls-1" points="86.67 26.95 78.06 22.3 76.82 39.67 86.67 26.95"/><polygon class="cls-1" points="98.36 49.06 86.67 26.95 76.82 39.67 98.36 49.06"/><path class="cls-1" d="M66.46,119.16l7.18,9.91q.89.19,1.79.32l3.6-7.3Z"/><path class="cls-1" d="M180,64.5l.2-2.58-.11-.07a9.65,9.65,0,0,0-2.76-8L150.8,56.15Z"/><path class="cls-1" d="M182.33,66.39,182,63.23a10.11,10.11,0,0,0-1.74-1.31L180,64.5Z"/><path class="cls-1" d="M15.46,79.17.66,83a27.55,27.55,0,0,0,.39,8.49c0,.21.1.42.15.63l13.56,14.13Z"/><path class="cls-7" d="M140.3,177.74c.14,1.56.26,3.15.35,4.8l2.25-.44-2.5-4.44Z"/><polygon class="cls-8" points="142.89 182.1 144.97 181.69 140.39 177.66 142.89 182.1"/><path class="cls-1" d="M183.77,65.45A9.84,9.84,0,0,0,182,63.23l.35,3.16Z"/><polygon class="cls-1" points="66.78 15.12 41.1 25.32 76.82 39.67 66.78 15.12"/><polygon class="cls-1" points="78.06 22.3 66.78 15.12 76.82 39.67 78.06 22.3"/><polygon class="cls-1" points="66.46 119.16 84.05 113.83 66.88 102.41 66.46 119.16"/><polygon class="cls-1" points="79.03 122.09 84.05 113.83 66.46 119.16 79.03 122.09"/><polygon class="cls-1" points="66.88 102.41 84.05 113.83 75.48 92.98 66.88 102.41"/><polygon class="cls-1" points="84.05 113.83 117.88 107.2 75.48 92.98 84.05 113.83"/><path class="cls-1" d="M41.1,25.32,20.46,36.51A27.94,27.94,0,0,0,14.64,49,27.94,27.94,0,0,0,4.41,71.85,27.81,27.81,0,0,0,3,74.65l12.5,4.52Z"/><path class="cls-1" d="M3,74.65A27.62,27.62,0,0,0,.66,83l14.79-3.88Z"/><polygon class="cls-1" points="124.7 106.57 150.61 136.22 135.42 103.99 124.7 106.57"/><polygon class="cls-1" points="150.61 136.22 147.44 106.57 135.42 103.99 150.61 136.22"/><path class="cls-1" d="M78.06,22.29,87.95,5.7a17.18,17.18,0,0,0-7.22-.12l-.59.14-13.35,9.4Z"/><path class="cls-1" d="M75.43,129.39a31.26,31.26,0,0,0,10.6-.26l.65-.14L79,122.09Z"/><path class="cls-1" d="M79,122.09l7.65,6.9a31,31,0,0,0,7.11-2.48L84,113.83Z"/><path class="cls-1" d="M84,113.83l9.74,12.68a30.54,30.54,0,0,0,11.13-9.3,19.15,19.15,0,0,0,12.18,10.28l.79-20.3Z"/><path class="cls-9" d="M140.28,177.55v.1h.11Z"/><path class="cls-1" d="M117.88,107.2l-.79,20.3a19.42,19.42,0,0,0,2.2.49,18.2,18.2,0,0,0,1.19,2.26l4.22-23.68Z"/><polygon class="cls-1" points="146.52 62.15 150.8 56.15 129.44 35.93 146.52 62.15"/><path class="cls-1" d="M150.61,136.22l12.37,0a19.16,19.16,0,0,0,5.13-3.32l-20.68-26.37Z"/><path class="cls-1" d="M147.44,106.57l20.68,26.37q.65-.59,1.24-1.23l-9.72-32.23Z"/><path class="cls-1" d="M159.64,99.48l9.72,32.23a18.65,18.65,0,0,0,5-13l.62-.34c.36-.21.7-.43,1-.66L181.32,99Z"/><path class="cls-1" d="M176,117.7a18.79,18.79,0,0,0,8-11.79L181.32,99Z"/><polygon class="cls-1" points="70.42 49.38 75.48 92.98 94.68 61.52 70.42 49.38"/><polygon class="cls-1" points="98.36 49.06 70.42 49.38 94.68 61.52 98.36 49.06"/><polygon class="cls-1" points="75.48 92.98 120.83 70 94.68 61.52 75.48 92.98"/><polygon class="cls-1" points="75.48 92.98 117.88 107.2 120.83 70 75.48 92.98"/><polygon class="cls-1" points="94.68 61.52 120.83 70 98.36 49.06 94.68 61.52"/><polygon class="cls-1" points="98.36 49.06 120.83 70 112.04 36.29 98.36 49.06"/><polygon class="cls-1" points="117.88 107.2 124.7 106.57 120.83 70 117.88 107.2"/><polygon class="cls-1" points="120.83 70 124.7 106.57 135.42 103.99 120.83 70"/><polygon class="cls-1" points="112.04 36.29 120.83 70 129.44 35.93 112.04 36.29"/><polygon class="cls-1" points="120.83 70 146.52 62.15 129.44 35.93 120.83 70"/><path class="cls-1" d="M47.16,17.22a27.84,27.84,0,0,0-8.35,4.24l2.29,3.86Z"/><path class="cls-1" d="M66.78,15.12l.14-5.61q-1,.12-2,.32a27.92,27.92,0,0,0-13,6.34c-.58.08-1.16.17-1.74.28a28.55,28.55,0,0,0-3,.76l-6.06,8.1Z"/><path class="cls-1" d="M80.14,5.72a17,17,0,0,0-7.29,3.69,28.27,28.27,0,0,0-5.92.1l-.14,5.61Z"/><path class="cls-1" d="M14.76,106.29l-1.32,3.24A29.05,29.05,0,0,0,28,114.14l6.11-1.08Z"/><path class="cls-1" d="M28,114.14a29.15,29.15,0,0,0,5.91-.36l.2-.72Z"/><polygon class="cls-1" points="14.77 106.29 34.1 113.06 15.46 79.17 14.77 106.29"/><polygon class="cls-1" points="34.1 113.06 48.78 74.74 15.46 79.17 34.1 113.06"/><path class="cls-1" d="M33.9,113.78l.57-.1-.37-.62Z"/><path class="cls-1" d="M50.44,107.76q.4,1.38.91,2.7l15.53-8Z"/><path class="cls-1" d="M34.47,113.68l.37-.06A28.91,28.91,0,0,0,45,109.51L34.1,113.06Z"/><path class="cls-1" d="M48.78,74.74,34.1,113.06,45,109.51a28.67,28.67,0,0,0,4.86-4c.15.75.34,1.48.55,2.21l16.44-5.34Z"/><path class="cls-1" d="M86.67,26.94,94,4.77a17.07,17.07,0,0,0-3.8,1.61l-.32-.11-11.79,16Z"/><path class="cls-1" d="M89.86,6.27a17.06,17.06,0,0,0-1.91-.57L78.06,22.29Z"/><path class="cls-1" d="M156.17,24.79a11.47,11.47,0,0,0-6.94-5.51l-1.29,2.93Z"/><path class="cls-1" d="M174.35,47.3a14.46,14.46,0,0,0-7.89-8.69c0-.43-.11-.85-.2-1.28A14.43,14.43,0,0,0,157,26.68a11.07,11.07,0,0,0-.81-1.89l-8.23-2.58Z"/><path class="cls-1" d="M4.92,101a28.43,28.43,0,0,0,8.52,8.51l1.32-3.24Z"/><path class="cls-1" d="M1.2,92.17A27.73,27.73,0,0,0,4.92,101l9.84,5.26Z"/><polygon class="cls-1" points="147.94 22.21 132.8 20.71 129.44 35.93 147.94 22.21"/><path class="cls-1" d="M142,16.79a11.51,11.51,0,0,0-11.05-6l-.19-.2,2.07,10.16Z"/><path class="cls-1" d="M147.94,22.21l1.29-2.93A11.64,11.64,0,0,0,148.1,19l-15.3,1.7Z"/><path class="cls-1" d="M148.1,19a11.68,11.68,0,0,0-4.31,0c-.29.06-.58.14-.86.21a11.15,11.15,0,0,0-1-2.48l-9.17,3.93Z"/><path class="cls-1" d="M122.44,20.4,105.7,5.56h0A17.16,17.16,0,0,0,95.43,4.42q-.74.15-1.45.35L86.67,26.94Z"/><polygon class="cls-1" points="122.44 20.4 86.67 26.95 112.04 36.29 122.44 20.4"/><path class="cls-1" d="M122.39,6.43a11.6,11.6,0,0,0-6.47-.58l-.19,0a11.62,11.62,0,0,0-10-.34L122.44,20.4Z"/><polygon class="cls-1" points="129.44 35.93 122.44 20.4 112.04 36.29 129.44 35.93"/><polygon class="cls-1" points="132.8 20.71 122.44 20.4 129.44 35.93 132.8 20.71"/><path class="cls-1" d="M132.8,20.71l-2.07-10.16a11.57,11.57,0,0,0-7.24-3.64,11.3,11.3,0,0,0-1.1-.48l.05,14Z"/><path class="cls-1" d="M120.48,130.25a19.1,19.1,0,0,0,6.9,6.67,64.22,64.22,0,0,1,6.22,11.71l14.12-5.47c0-.15,0-.29,0-.44l-23-36.17Z"/><path class="cls-10" d="M140.28,177.55l.12.11,7.34-33.61c0-.3,0-.59,0-.88l-14.12,5.47A99.13,99.13,0,0,1,140.28,177.55Z"/><path class="cls-1" d="M124.7,106.57l23,36.17c0-2.1.08-4.18.26-6.2a19.67,19.67,0,0,0,2.23.72l.4-1Z"/><path class="cls-11" d="M152.44,175.15c-1.72-6.63-4.5-19.11-4.71-31.1l-7.34,33.61Z"/><path class="cls-1" d="M150.21,137.25a19.43,19.43,0,0,0,8.67.27,19.67,19.67,0,0,0,4.09-1.28l-12.37,0Z"/><path class="cls-1" d="M56.26,118.72A30.55,30.55,0,0,0,60.68,123l5.78-3.86Z"/><path class="cls-1" d="M60.68,123a31.07,31.07,0,0,0,13,6.06l-7.18-9.91Z"/><polygon class="cls-1" points="135.42 103.99 158.03 82.19 120.83 70 135.42 103.99"/><polygon class="cls-1" points="120.83 70 158.03 82.19 146.52 62.15 120.83 70"/><polygon class="cls-1" points="147.44 106.57 158.03 82.19 135.42 103.99 147.44 106.57"/><polygon class="cls-1" points="159.64 99.48 158.03 82.19 147.44 106.57 159.64 99.48"/><polygon class="cls-1" points="146.52 62.15 158.03 82.19 150.8 56.15 146.52 62.15"/><polygon class="cls-1" points="150.8 56.15 158.03 82.19 180.03 64.5 150.8 56.15"/><polygon class="cls-1" points="181.32 98.98 158.03 82.19 159.64 99.48 181.32 98.98"/><path class="cls-1" d="M158,82.19,181.32,99l.21-6.7a19,19,0,0,0-3-3.72,10,10,0,0,0,3.2-1.58l.64-20.6Z"/><polygon class="cls-1" points="158.03 82.19 182.33 66.39 180.03 64.5 158.03 82.19"/><path class="cls-1" d="M181.69,87a9.67,9.67,0,0,0,2.63-12.86,9.61,9.61,0,0,0-.44-8.46l-1.55.72Z"/><path class="cls-1" d="M183.16,95.55a18.7,18.7,0,0,0-1.48-3l-.15-.22-.21,6.7Z"/><path class="cls-1" d="M184,105.91a18.45,18.45,0,0,0-.83-10.36L181.32,99Z"/><path class="cls-1" d="M182.33,66.39l1.55-.72-.11-.22Z"/><path class="cls-1" d="M35.52,24.34a27.7,27.7,0,0,0-2.83,3.4L32,28l9.11-2.71Z"/><path class="cls-1" d="M32,28a28.53,28.53,0,0,0-11.52,8.48L41.1,25.32Z"/></g><polygon class="cls-12" points="15.77 70.97 26.94 42.26 55.66 19.59 108.71 17.52 150.52 28.99 171.41 47.69 179.81 73.57 174.87 91.39 154.81 115.05 134.32 117.06 140.88 142.03 100.19 105.54 87.39 115.28 70.12 116.18 56.1 99.32 34.74 102.39 19.33 89.61 15.77 70.97"/><text class="cls-13" transform="translate(16.03 181.25)"><tspan class="cls-14">Brain</tspan><tspan class="cls-15" x="86.9" y="0">Map</tspan></text></g></g></g></svg>